# xmcd CD database file generated by OrangeCD 5.2
#
# Track frame offsets:
#	150
#	12425
#	29537
#	43982
#	57065
#	75217
#	91752
#	104987
#	117780
#	132315
#
# Disc length: 1957 seconds
#
# Revision: 4
# Processed by: cddbd v1.5.1PL0 Copyright (c) Steve Scherf et al.
# Submitted via: OrangeCD 5.2
#
DISCID=7d07a30a
DTITLE=Tanya Tucker - Greatest Hits
DYEAR=1993
DGENRE=Country
TTITLE0=Strong Enough To Bend
TTITLE1=Love Like You Used To
TTITLE2=Just Another Love
TTITLE3=One Love At A Time
TTITLE4=Texas (When I Die)
TTITLE5=I Won't Take Less Than You Love
TTITLE6=San Antonio Stroll
TTITLE7=Would You Lay With Me (In A Field Of Stone)
TTITLE8=What's Your Mama's Name, Child
TTITLE9=Blood Red And Going Down
EXTD=
EXTT0=
EXTT1=
EXTT2=
EXTT3=
EXTT4=
EXTT5=With Paul Davis and Paul Overstreet
EXTT6=
EXTT7=
EXTT8=
EXTT9=
PLAYORDER=
